<svg width="134" height="134" viewBox="0 0 134 134" fill="none" xmlns="http://www.w3.org/2000/svg">
<path fill-rule="evenodd" clip-rule="evenodd" d="M35.3815 86.8087L30.188 100.658C29.9886 101.191 29.9468 101.77 30.0676 102.326C30.1884 102.882 30.4667 103.392 30.8693 103.794C31.2719 104.196 31.7818 104.474 32.338 104.594C32.8942 104.715 33.4733 104.672 34.0061 104.472L47.8515 99.2787C49.4362 98.6852 50.8756 97.7593 52.0728 96.5634L92.1784 56.4578C92.1784 56.4578 90.7792 52.2642 86.5896 48.0707C82.4 43.8811 78.2025 42.4819 78.2025 42.4819L38.0969 82.5875C36.9009 83.7847 35.9751 85.224 35.3815 86.8087ZM83.7952 36.8892L89.2614 31.4229C90.2417 30.4427 91.5499 29.8182 92.9175 30.0474C94.8423 30.3636 97.7869 31.3201 100.562 34.0987C103.34 36.8773 104.297 39.8179 104.613 41.7428C104.842 43.1103 104.218 44.4186 103.237 45.3988L97.7671 50.865C97.7671 50.865 96.3719 46.6754 92.1784 42.4858C87.9888 38.2883 83.7952 36.8892 83.7952 36.8892Z" fill="white"/>
</svg>
