<svg width="114" height="114" viewBox="0 0 114 114" fill="none" xmlns="http://www.w3.org/2000/svg">
<path d="M60.2479 61.0062L57.1992 57.931L54.1506 61.0062L38.8985 76.391C38.8974 76.3921 38.8963 76.3932 38.8952 76.3942C38.8027 76.4851 38.6757 76.5411 38.5194 76.5411C38.367 76.5411 38.2424 76.4879 38.1506 76.4011C38.1427 76.3888 38.093 76.3087 38.093 76.1281C38.093 75.9175 38.1645 75.7592 38.2325 75.6727L53.4186 60.3544L56.4149 57.332L53.4186 54.3097L38.2326 38.9915C38.1651 38.9055 38.093 38.7465 38.093 38.5343C38.093 38.3569 38.1407 38.2776 38.1486 38.2649C38.2407 38.1769 38.3659 38.123 38.5194 38.123C38.6757 38.123 38.8027 38.179 38.8952 38.2698C38.8963 38.2709 38.8974 38.272 38.8985 38.2731L54.1506 53.6579L57.1992 56.7331L60.2479 53.6579L75.5 38.2731C75.5011 38.2719 75.5023 38.2708 75.5035 38.2696C75.5959 38.1789 75.7229 38.123 75.8791 38.123C76.0314 38.123 76.156 38.1762 76.2479 38.263C76.2557 38.2753 76.3054 38.3554 76.3054 38.536C76.3054 38.7466 76.2339 38.9049 76.166 38.9914L60.9799 54.3097L57.9836 57.332L60.9799 60.3544L76.1659 75.6726C76.2334 75.7586 76.3054 75.9176 76.3054 76.1297C76.3054 76.3071 76.2578 76.3864 76.2498 76.3992C76.1578 76.4872 76.0325 76.5411 75.8791 76.5411C75.7229 76.5411 75.5959 76.4852 75.5034 76.3944C75.5023 76.3933 75.5011 76.3922 75.5 76.391L60.2479 61.0062ZM109.293 57.0664C109.293 28.1838 85.8162 4.7071 56.9336 4.7071C28.0355 4.7071 4.7071 28.1993 4.7071 57.0664C4.7071 85.949 28.051 109.293 56.9336 109.293C85.8007 109.293 109.293 85.9645 109.293 57.0664Z" fill="#F91520" stroke="#0C0E58" stroke-width="8.5858"/>
</svg>
