<svg width="101" height="101" viewBox="0 0 101 101" fill="none" xmlns="http://www.w3.org/2000/svg">
<path d="M36.1234 17.2123C42.5199 5.73744 45.718 0 50.4999 0C55.2817 0 58.4799 5.73739 64.8762 17.2122L66.5311 20.1809C68.349 23.4417 69.2575 25.0721 70.6751 26.1479C72.0921 27.2236 73.8566 27.6229 77.3865 28.4216L80.6003 29.1487C93.0213 31.9591 99.2322 33.3643 100.71 38.1159C102.187 42.8673 97.9536 47.8188 89.4853 57.7208L87.2946 60.2827C84.8883 63.0965 83.6848 64.5035 83.1435 66.2442C82.6026 67.9849 82.7844 69.862 83.148 73.6167L83.4793 77.0345C84.7595 90.2463 85.3998 96.8522 81.5315 99.7887C77.6627 102.725 71.8477 100.048 60.2176 94.6933L57.2088 93.3076C53.9041 91.786 52.2517 91.025 50.4999 91.025C48.748 91.025 47.0957 91.786 43.791 93.3076L40.7822 94.6933C29.152 100.048 23.3369 102.725 19.4685 99.7887C15.6 96.8522 16.2402 90.2463 17.5204 77.0345L17.8516 73.6167C18.2155 69.862 18.3974 67.9849 17.8561 66.2442C17.3148 64.5035 16.1116 63.0965 13.7053 60.2827L11.5145 57.7208C3.04641 47.8188 -1.18765 42.8673 0.28998 38.1159C1.76761 33.3643 7.97828 31.9591 20.3996 29.1487L23.6132 28.4216C27.1429 27.6229 28.9078 27.2236 30.3249 26.1479C31.7419 25.0721 32.6508 23.4417 34.4685 20.1809L36.1234 17.2123Z" fill="#070730"/>
</svg>
